<svg xmlns="http://www.w3.org/2000/svg" width="16" height="16" viewBox="0 0 16 16" fill="none">
  <path d="M9.80029 11.5999H6.80029" stroke="#374151" stroke-width="1.2" stroke-linecap="round"
    stroke-linejoin="round" />
  <path d="M11.6003 9.19995H6.80029" stroke="#374151" stroke-width="1.2" stroke-linecap="round"
    stroke-linejoin="round" />
  <path
    d="M3.2 14H12.8C13.1183 14 13.4235 13.8736 13.6485 13.6485C13.8736 13.4235 14 13.1183 14 12.8V3.2C14 2.88174 13.8736 2.57652 13.6485 2.35147C13.4235 2.12643 13.1183 2 12.8 2H5.6C5.28174 2 4.97652 2.12643 4.75147 2.35147C4.52643 2.57652 4.4 2.88174 4.4 3.2V12.8C4.4 13.1183 4.27357 13.4235 4.04853 13.6485C3.82348 13.8736 3.51826 14 3.2 14ZM3.2 14C2.88174 14 2.57652 13.8736 2.35147 13.6485C2.12643 13.4235 2 13.1183 2 12.8V7.4C2 7.08174 2.12643 6.77652 2.35147 6.55147C2.57652 6.32643 2.88174 6.2 3.2 6.2H4.4"
    stroke="#374151" stroke-width="1.2" stroke-linecap="round" stroke-linejoin="round" />
  <path
    d="M11.0003 4.40015H7.40029C7.06892 4.40015 6.80029 4.66878 6.80029 5.00015V6.20015C6.80029 6.53152 7.06892 6.80015 7.40029 6.80015H11.0003C11.3317 6.80015 11.6003 6.53152 11.6003 6.20015V5.00015C11.6003 4.66878 11.3317 4.40015 11.0003 4.40015Z"
    stroke="#374151" stroke-width="1.2" stroke-linecap="round" stroke-linejoin="round" />
</svg>